<svg aria-hidden="true" style="position: absolute; width: 0; height: 0; overflow: hidden;" version="1.1" xmlns="http://www.w3.org/2000/svg" xmlns:xlink="http://www.w3.org/1999/xlink">
<defs>
<symbol id="icon-dark-btn" viewBox="0 0 32 32">
<path d="M28.598 9.909l-2.886-0.558-1.423-2.573-1.423 2.573-2.887 0.558 2.007 2.148-0.361 2.918 2.664-1.245 2.664 1.245-0.361-2.918z"></path>
<path d="M25.103 20.714l-1.985-0.384-0.978-1.769-0.978 1.769-1.984 0.384 1.38 1.477-0.249 2.006 1.831-0.856 1.831 0.856-0.248-2.006z"></path>
<path d="M12.807 16c0-6.549 4.097-12.14 9.867-14.354-2.060-0.979-4.363-1.528-6.792-1.528-8.757 0-15.882 7.124-15.882 15.882s7.124 15.882 15.882 15.882c2.429 0 4.732-0.549 6.792-1.528-5.77-2.213-9.867-7.805-9.867-14.354z"></path>
<path d="M32 17.761l-1.624-0.314-0.8-1.447-0.8 1.447-1.624 0.314 1.129 1.209-0.203 1.641 1.498-0.701 1.498 0.701-0.203-1.641z"></path>
</symbol>
</defs>
</svg>
